<?xml version="1.0" encoding="utf-8"?>
<!-- Generator: Adobe Illustrator 23.0.3, SVG Export Plug-In . SVG Version: 6.00 Build 0)  -->
<svg version="1.1" id="Группа_1" xmlns="http://www.w3.org/2000/svg" xmlns:xlink="http://www.w3.org/1999/xlink" x="0px"
	 y="0px" viewBox="0 0 269 409" style="enable-background:new 0 0 269 409;" xml:space="preserve">
<path fill="#44444F" d="M5,0h258.9c2.8,0,5,2.2,5,5v399c0,2.8-2.2,5-5,5H5c-2.8,0-5-2.2-5-5V5C0,2.2,2.2,0,5,0z"/>
<path fill="#65E496" d="M268.9,283.6l-18.3,10.5c0,0-0.1,0-0.1,0.1c-2.4,1.4-3.1,4.5-1.7,6.9s4.5,3.1,6.9,1.7l13.3-7.7V283.6z"/>
<path fill="#65E496" d="M268.9,256.6l-18.3,10.5c-2.4,1.4-3.2,4.4-1.8,6.8c1.4,2.4,4.4,3.2,6.8,1.8l13.3-7.7V256.6z"/>
<rect fill="#3D3D47" width="37.9" height="409"/>
</svg>
