<svg xmlns="http://www.w3.org/2000/svg" width="42" height="48" viewBox="0 0 42 48"><path d="M23.922 38.805v-7.012c0-.95.77-1.719 1.723-1.719 3.39 0 5.234-3.48 5.492-10.347h-5.492a1.72 1.72 0 0 1-1.723-1.72v-14.8c0-.953.77-1.723 1.723-1.723h14.644c.95 0 1.719.774 1.719 1.723v14.8c0 3.29-.332 6.313-.985 8.977-.668 2.735-1.695 5.125-3.054 7.11-1.399 2.035-3.145 3.633-5.196 4.746-2.062 1.117-4.46 1.687-7.132 1.687a1.725 1.725 0 0 1-1.72-1.722zm-22.2-8.73A1.72 1.72 0 0 0 0 31.792v7.012c0 .949.77 1.718 1.723 1.718 2.664 0 5.066-.566 7.129-1.687 2.05-1.113 3.796-2.707 5.195-4.746 1.36-1.98 2.387-4.371 3.055-7.106.656-2.668.984-5.687.984-8.98v-14.8c0-.95-.77-1.72-1.719-1.72H1.723A1.72 1.72 0 0 0 0 3.204v14.8c0 .953.77 1.723 1.723 1.723h5.414c-.254 6.867-2.07 10.347-5.414 10.347zm0 0" fill="#65e496"/></svg>